<?xml version="1.0" standalone="no"?><svg xmlns="http://www.w3.org/2000/svg" viewBox="0 0 1440 320"><path fill="#0099ff" fill-opacity="0.2" d="M0,320L0,256L130.9,256L130.9,64L261.8,64L261.8,128L392.7,128L392.7,256L523.6,256L523.6,0L654.5,0L654.5,288L785.5,288L785.5,64L916.4,64L916.4,288L1047.3,288L1047.3,224L1178.2,224L1178.2,256L1309.1,256L1309.1,288L1440,288L1440,320L1309.1,320L1309.1,320L1178.2,320L1178.2,320L1047.3,320L1047.3,320L916.4,320L916.4,320L785.5,320L785.5,320L654.5,320L654.5,320L523.6,320L523.6,320L392.7,320L392.7,320L261.8,320L261.8,320L130.9,320L130.9,320L0,320L0,320Z"></path></svg>